# xmcd
#
# Track frame offsets:
#	150
#	16951
#	34978
#	57286
#	71785
#	96389
#	114916
#	131148
#	149206
#	163986
#	177200
#	192962
#	211195
#	229030
#	261227
#	286431
#	304713
#	321157
#	338710
#
# Disc length: 4715 seconds
#
# Revision: 0
# Processed by: cddbd v1.4PL0 Copyright (c) Steve Scherf et al.
# Submitted via: MusicWizard 6.0.0
#
DISCID=28126913
DTITLE=Various Artist - Bravo Hits 37 [CD 2/2)
DYEAR=1900
DGENRE=
TTITLE0=Band Ohne Namen - Missing You
TTITLE1=Britney Spears - I'm Not A Girl, Not Yet A Woman
TTITLE2=Kc Da Rookee Feat. Afrob, Samy Deluxe and D-Flame - Four Fists (Part 2)
TTITLE3=Natural - Put Your Arms Around Me
TTITLE4=Mary J. Blige - No More Drama
TTITLE5=Ja Rule Feat. Ashanti - Always On Time
TTITLE6=Jeanette - No More Tears
TTITLE7=Ben Feat. Gim - Engel
TTITLE8=Destiny's Child - Nasty Girl
TTITLE9=Ganesha - Babariba
TTITLE10=Anastacia - One Day In Your Life
TTITLE11=A-Ha - Forever Not Yours
TTITLE12=Laith Al-Deen - Dein Lied
TTITLE13=Sono - Blame
TTITLE14=Moonwalker - Such A Shame
TTITLE15=Espen Lind - Life Is Good
TTITLE16=Natural Born Hippies - Get It On
TTITLE17=Die Toten Hosen - Steh Auf, Wenn Du Am Boden Liegst
TTITLE18=Marilyn Manson - Tainted Love
EXTD=
EXTT0=
EXTT1=
EXTT2=
EXTT3=
EXTT4=
EXTT5=
EXTT6=
EXTT7=
EXTT8=
EXTT9=
EXTT10=
EXTT11=
EXTT12=
EXTT13=
EXTT14=
EXTT15=
EXTT16=
EXTT17=
EXTT18=
PLAYORDER=
